<svg id="Слой_1" data-name="Слой 1" xmlns="http://www.w3.org/2000/svg" viewBox="0 0 156.01 169">
  <defs>
    <style>
      .cls-1 {
        fill: #fff;
        stroke: #bfbfbf;
        stroke-miterlimit: 10;
      }

      .cls-2 {
        fill: #58cbb1;
      }

      .cls-3 {
        fill: #546065;
      }
    </style>
  </defs>
  <title>класс с белым фоном</title>
  <path id="Polygon_1_copy_4" data-name="Polygon 1 copy 4" class="cls-1" d="M142.42,30.64c15.54,7.93,26.74,14.17,41.26,22.22,14.06,7,16.92,15.55,16.89,33.17,0,16,.05,28.32,0,46.31s-3.53,20.93-17.82,30.23c-13.35,7.75-25.16,14.52-40.33,23-13.32,8.62-24.56,8.26-36.71,0-14.84-8-25.56-14.18-40.34-23-14.28-8.7-19.48-15.34-19.73-32.37,0-16.25-.13-27.89,0-44.18-.05-16.7,5.68-25.58,19.73-32.37,15.09-9.47,25.5-15.43,40.34-23C122,21.71,126.19,21.65,142.42,30.64Z" transform="translate(-45.09 -23.42)"/>
  <g>
    <path class="cls-2" d="M107.88,104.37H86.1a1.69,1.69,0,0,0-1.69,1.69v39.75a1.69,1.69,0,0,0,1.69,1.69h21.78a1.69,1.69,0,0,0,1.69-1.69V106.06A1.69,1.69,0,0,0,107.88,104.37ZM92.28,145.71A4.71,4.71,0,1,1,97,141,4.7,4.7,0,0,1,92.28,145.71Z" transform="translate(-45.09 -23.42)"/>
    <path class="cls-3" d="M167,109.48a6.27,6.27,0,0,0-6.27-6.27H140.79c-5.08,0,1.87-10.47,2.92-21.67S139.22,68,137.58,68a6.46,6.46,0,0,0-6.24,6.34c-.21,4.86-3.38,17.76-8.24,21.78s-10.79,13.11-10.79,13.11v33.55c6.35,6.91,35.66,4.72,35.66,4.72h4.25a4.92,4.92,0,0,0,0-9.83h3.65A5.49,5.49,0,0,0,157.7,127h1.14a5.71,5.71,0,0,0,1.39-11.24h.52A6.28,6.28,0,0,0,167,109.48Z" transform="translate(-45.09 -23.42)"/>
  </g>
</svg>
