<svg id="Слой_1" data-name="Слой 1" xmlns="http://www.w3.org/2000/svg" viewBox="0 0 156.01 169">
  <defs>
    <style>
      .cls-1, .cls-8 {
        fill: #fff;
      }

      .cls-1 {
        stroke: #bfbfbf;
        stroke-miterlimit: 10;
      }

      .cls-2 {
        fill: #58cbb1;
      }

      .cls-3 {
        fill: #8ce3d4;
      }

      .cls-4 {
        fill: #546065;
      }

      .cls-5 {
        fill: #c2f8f0;
      }

      .cls-6 {
        fill: #17b198;
      }

      .cls-7 {
        fill: #5c696d;
      }
    </style>
  </defs>
  <title>деньги иконка с белым фоном</title>
  <g id="деньги">
    <g>
      <path id="Polygon_1_copy_4" data-name="Polygon 1 copy 4" class="cls-1" d="M317.26,29.85C332.8,37.78,344,44,358.52,52.06c14.06,7,16.92,15.55,16.89,33.17,0,16,.05,28.32,0,46.31s-3.53,20.93-17.82,30.23c-13.35,7.75-25.16,14.52-40.33,23-13.32,8.62-24.56,8.26-36.71,0-14.84-8-25.56-14.18-40.34-23-14.28-8.7-19.48-15.34-19.73-32.37,0-16.25-.13-27.89,0-44.18-.05-16.7,5.68-25.58,19.73-32.37,15.09-9.47,25.5-15.43,40.34-23C296.88,20.92,301,20.85,317.26,29.85Z" transform="translate(-219.93 -22.63)"/>
      <g>
        <rect class="cls-2" x="31.39" y="88.21" width="97.56" height="27.44"/>
        <polygon class="cls-3" points="31.39 88.21 43.58 63.82 116.75 63.82 128.95 88.21 31.39 88.21"/>
        <polygon class="cls-4" points="39.01 85.16 48.16 66.87 112.18 66.87 121.33 85.16 39.01 85.16"/>
        <circle class="cls-5" cx="104.56" cy="76.02" r="1.52"/>
        <circle class="cls-5" cx="55.78" cy="76.02" r="1.52"/>
        <ellipse class="cls-5" cx="80.17" cy="76.02" rx="9.15" ry="7.62"/>
        <path class="cls-6" d="M300,93.34a.69.69,0,0,1,.74.62v.17a6.84,6.84,0,0,1,2.07.57.8.8,0,0,1,.52.72.89.89,0,0,1-1,.8,1.18,1.18,0,0,1-.5-.11,6.19,6.19,0,0,0-1.19-.41v1.81c2.17.49,3.1,1.23,3.1,2.57s-1.23,2.2-3,2.36v.63a.76.76,0,0,1-1.49,0v-.64a8.09,8.09,0,0,1-2.82-.84.79.79,0,0,1-.49-.72.89.89,0,0,1,1-.81,1.18,1.18,0,0,1,.56.16,6.07,6.07,0,0,0,1.83.67V99c-2.06-.46-3.08-1.12-3.08-2.54s1.2-2.2,3-2.35V94A.69.69,0,0,1,300,93.34Zm-.67,3.87V95.59c-.69.08-1,.37-1,.75S298.57,97,299.36,97.2Zm1.34,2.09v1.66c.67-.08,1-.35,1-.78S301.48,99.52,300.71,99.29Z" transform="translate(-219.93 -22.63)"/>
        <rect class="cls-5" x="31.39" y="91.26" width="97.56" height="3.05"/>
        <rect class="cls-5" x="31.39" y="97.36" width="97.56" height="3.05"/>
        <rect class="cls-5" x="31.39" y="103.45" width="97.56" height="3.05"/>
        <rect class="cls-5" x="31.39" y="109.55" width="97.56" height="3.05"/>
        <polygon class="cls-3" points="31.39 91.26 64.2 91.26 67.25 88.21 31.39 88.21 31.39 91.26"/>
        <polygon class="cls-3" points="31.39 97.36 58.11 97.36 61.16 94.31 31.39 94.31 31.39 97.36"/>
        <polygon class="cls-3" points="31.39 112.6 31.39 115.65 39.81 115.65 42.86 112.6 31.39 112.6"/>
        <polygon class="cls-3" points="31.39 103.45 52.01 103.45 55.06 100.41 31.39 100.41 31.39 103.45"/>
        <polygon class="cls-3" points="31.39 109.55 45.91 109.55 48.96 106.5 31.39 106.5 31.39 109.55"/>
        <polygon class="cls-5" points="31.39 88.21 67.25 88.21 70.3 85.16 39.01 85.16 48.16 66.87 88.59 66.87 91.64 63.82 43.58 63.82 31.39 88.21"/>
        <path class="cls-7" d="M290.95,98.64c0-4.21,4.09-7.62,9.15-7.62a10.34,10.34,0,0,1,5.41,1.49l3-3H268.08l-9.15,18.29h31.29l3.6-3.6A7.07,7.07,0,0,1,290.95,98.64Zm-15.24,1.52a1.52,1.52,0,1,1,1.52-1.52A1.52,1.52,0,0,1,275.7,100.17Z" transform="translate(-219.93 -22.63)"/>
        <circle class="cls-8" cx="55.78" cy="76.02" r="1.52"/>
        <path class="cls-8" d="M290.95,98.64a7.07,7.07,0,0,0,2.88,5.54l2.61-2.61a.78.78,0,0,1-.46-.69.89.89,0,0,1,1-.81,1.18,1.18,0,0,1,.56.16l.18.08,1.38-1.38c-1.87-.46-2.8-1.12-2.8-2.47s1.2-2.2,3-2.35V94a.76.76,0,0,1,1.49,0v.17a6.84,6.84,0,0,1,2.07.57,1.14,1.14,0,0,1,.27.19l2.38-2.38A10.34,10.34,0,0,0,300.1,91C295,91,290.95,94.43,290.95,98.64Z" transform="translate(-219.93 -22.63)"/>
        <path class="cls-8" d="M300.71,95.7v1.61l1.2-1.2h0A6.22,6.22,0,0,0,300.71,95.7Z" transform="translate(-219.93 -22.63)"/>
        <path class="cls-8" d="M298.38,96.34c0,.37.2.62,1,.86V95.59C298.68,95.67,298.38,96,298.38,96.34Z" transform="translate(-219.93 -22.63)"/>
        <polygon class="cls-8" points="31.39 94.31 61.16 94.31 64.2 91.26 31.39 91.26 31.39 94.31"/>
        <polygon class="cls-8" points="31.39 100.41 55.06 100.41 58.11 97.36 31.39 97.36 31.39 100.41"/>
        <polygon class="cls-8" points="31.39 106.5 48.96 106.5 52.01 103.45 31.39 103.45 31.39 106.5"/>
        <polygon class="cls-8" points="31.39 112.6 42.86 112.6 45.91 109.55 31.39 109.55 31.39 112.6"/>
      </g>
    </g>
  </g>
</svg>
