<svg id="Слой_1" data-name="Слой 1" xmlns="http://www.w3.org/2000/svg" viewBox="0 0 156.01 169">
  <defs>
    <style>
      .cls-1, .cls-5 {
        fill: #fff;
        stroke-miterlimit: 10;
      }

      .cls-1 {
        stroke: #bfbfbf;
      }

      .cls-2 {
        fill: #546065;
      }

      .cls-3 {
        fill: #f4f4f4;
      }

      .cls-4 {
        fill: #58cbb1;
      }

      .cls-5 {
        stroke: #235c6d;
      }
    </style>
  </defs>
  <title>иконка с белым фоном часы</title>
  <g id="часы">
    <path id="Polygon_1_copy_4" data-name="Polygon 1 copy 4" class="cls-1" d="M412.71,27.89C428.25,35.82,439.45,42.06,454,50.1c14.06,7,16.92,15.55,16.89,33.17,0,16,.05,28.32,0,46.31s-3.53,20.93-17.82,30.23c-13.35,7.75-25.16,14.52-40.33,23-13.32,8.62-24.56,8.26-36.71,0-14.84-8-25.56-14.18-40.34-23-14.28-8.7-19.48-15.34-19.73-32.37,0-16.25-.13-27.89,0-44.18-.05-16.7,5.68-25.58,19.73-32.37,15.09-9.47,25.5-15.43,40.34-23C392.33,19,396.47,18.89,412.71,27.89Z" transform="translate(-315.38 -20.67)"/>
    <g id="_Группа_" data-name="&lt;Группа&gt;">
      <circle id="_Контур_" data-name="&lt;Контур&gt;" class="cls-2" cx="78" cy="83.01" r="40.08"/>
      <path class="cls-3" d="M409.55,134.27A34.65,34.65,0,1,1,377.24,73Z" transform="translate(-315.38 -20.67)"/>
      <path class="cls-3" d="M427.92,103.68a34.64,34.64,0,0,1-18.37,30.6L377.24,73a34.66,34.66,0,0,1,50.69,30.71Z" transform="translate(-315.38 -20.67)"/>
      <path id="_Контур_2" data-name="&lt;Контур&gt;" class="cls-4" d="M392,104.64l.32,19.62s1.49,1.92,2.56,0l-.43-19.3h-.11a2,2,0,0,1-1.39.21,1.47,1.47,0,0,1-1-.53Z" transform="translate(-315.38 -20.67)"/>
      <path id="_Контур_3" data-name="&lt;Контур&gt;" class="cls-4" d="M395.19,104.64l20.15-.11s1.81-.85-.11-1.92l-19.94.32a4,4,0,0,1,.11.85A3.11,3.11,0,0,1,395.19,104.64Z" transform="translate(-315.38 -20.67)"/>
      <g id="_Группа_2" data-name="&lt;Группа&gt;">
        <g id="_Группа_3" data-name="&lt;Группа&gt;">
          <g id="_Группа_4" data-name="&lt;Группа&gt;">
            <rect id="_Контур_4" data-name="&lt;Контур&gt;" class="cls-4" x="388.7" y="87.2" width="0.64" height="23.99" transform="translate(-271.58 283.47) rotate(-45)"/>
          </g>
          <circle id="_Контур_5" data-name="&lt;Контур&gt;" class="cls-4" cx="82.05" cy="86.85" r="0.53"/>
          <circle id="_Контур_6" data-name="&lt;Контур&gt;" class="cls-4" cx="65.42" cy="70.22" r="0.64"/>
        </g>
      </g>
      <circle id="_Контур_7" data-name="&lt;Контур&gt;" class="cls-5" cx="78" cy="83.01" r="2.24"/>
    </g>
  </g>
</svg>
