<svg id="Слой_1" data-name="Слой 1" xmlns="http://www.w3.org/2000/svg" viewBox="0 0 156.01 169">
  <defs>
    <style>
      .cls-1, .cls-6 {
        fill: #fff;
      }

      .cls-1 {
        stroke: #bfbfbf;
        stroke-miterlimit: 10;
      }

      .cls-2 {
        fill: #58cbb1;
      }

      .cls-3 {
        fill: #4eaf96;
      }

      .cls-4 {
        fill: #546065;
      }

      .cls-5 {
        opacity: 0.14;
      }
    </style>
  </defs>
  <title>комп с белым фоном</title>
  <g id="комп">
    <path id="Polygon_1_copy_4" data-name="Polygon 1 copy 4" class="cls-1" d="M584.5,27.89C600,35.82,611.25,42.06,625.77,50.1c14.06,7,16.92,15.55,16.89,33.17,0,16,.05,28.32,0,46.31s-3.53,20.93-17.82,30.23c-13.35,7.75-25.16,14.52-40.33,23-13.32,8.62-24.56,8.26-36.71,0-14.84-8-25.56-14.18-40.34-23-14.28-8.7-19.48-15.34-19.73-32.37,0-16.25-.13-27.89,0-44.18-.05-16.7,5.68-25.58,19.73-32.37,15.09-9.47,25.5-15.43,40.34-23C564.12,19,568.27,18.89,584.5,27.89Z" transform="translate(-487.17 -20.67)"/>
    <g id="комп-2" data-name="комп">
      <path class="cls-2" d="M589.27,140.3a4,4,0,0,1-4,4H545.1a4,4,0,0,1-4-4h0a4,4,0,0,1,4-4h40.16a4,4,0,0,1,4,4Z" transform="translate(-487.17 -20.67)"/>
      <path class="cls-3" d="M575.22,124.24s-2,12,6,12H549.11c8,0,6-12,6-12Z" transform="translate(-487.17 -20.67)"/>
      <g>
        <path class="cls-4" d="M534.48,120a4.75,4.75,0,0,1-4.74-4.74V73.49a4.75,4.75,0,0,1,4.74-4.74h60.72a4.75,4.75,0,0,1,4.74,4.74v41.75a4.75,4.75,0,0,1-4.74,4.74Z" transform="translate(-487.17 -20.67)"/>
        <path class="cls-2" d="M597.3,70a2,2,0,0,1,2,2v44.17a2,2,0,0,1-2,2H533.05a2,2,0,0,1-2-2V72a2,2,0,0,1,2-2H597.3m0-6H533.05a8,8,0,0,0-8,8v44.17a8,8,0,0,0,8,8H597.3a8,8,0,0,0,8-8V72a8,8,0,0,0-8-8Z" transform="translate(-487.17 -20.67)"/>
      </g>
      <g class="cls-5">
        <polygon class="cls-6" points="112.14 97.55 112.14 49.36 67.75 49.36 95.7 97.55 112.14 97.55"/>
      </g>
    </g>
  </g>
</svg>
